<svg width="56" height="56" viewBox="0 0 56 56" fill="none" xmlns="http://www.w3.org/2000/svg">
<rect width="56" height="56" rx="12" fill="white"/>
<path d="M39.9691 5.16299C39.3207 5.41375 37.4103 5.87348 36.3816 6.0323C35.7851 6.12424 34.4538 6.19111 32.5347 6.24127C29.2066 6.33321 27.711 6.42516 25.9648 6.66756C18.7206 7.6706 13.1708 10.663 9.47954 15.5612C5.39928 20.9776 4.02479 27.7482 5.6932 34.1593C8.00131 43.0195 15.4703 49.4975 24.9275 50.8433C26.3798 51.0522 29.6215 51.0522 31.0651 50.8433C35.2664 50.2498 38.9836 48.7369 42.2513 46.3045C43.4097 45.4352 45.493 43.3706 46.4007 42.1837C48.1469 39.9185 49.4004 37.4861 50.1611 34.945C51.8036 29.4199 51.0342 23.619 47.853 17.467C47.0404 15.9039 46.5304 15.0513 45.2077 13.0536C43.5912 10.6212 42.5884 8.52319 42.087 6.54218C41.8623 5.6478 41.7067 5.38032 41.309 5.16299C40.9027 4.94567 40.531 4.94567 39.9691 5.16299ZM39.9172 8.18048C40.1247 8.8659 40.773 10.3872 41.2226 11.2565C41.8104 12.3849 42.1735 13.0035 43.254 14.6418C46.0376 18.8713 47.4467 22.0726 48.1296 25.7672C49.1324 31.192 47.7752 36.3911 44.1358 41.0552C43.401 41.9914 41.5251 43.7718 40.4445 44.5575C35.8629 47.8676 30.1142 49.23 24.5903 48.3189C18.8849 47.3744 13.7759 44.0644 10.6466 39.2832C9.2202 37.1016 8.13098 34.1593 7.70739 31.4093C7.50857 30.0636 7.50857 27.3637 7.71604 26.0096C8.05318 23.8363 8.6583 21.9807 9.67836 19.9746C12.3409 14.7337 16.8534 11.2899 23.1035 9.71012C25.7228 9.04979 27.5295 8.84082 31.627 8.74887C35.5258 8.65693 37.3238 8.47304 39.1911 7.96316C39.8048 7.79598 39.8048 7.79598 39.9172 8.18048Z" fill="black"/>
<path d="M35.6914 12.502C34.2218 12.9868 32.8127 13.1791 30.6343 13.1791C27.5655 13.1791 24.9634 13.5552 22.4651 14.3493C21.3154 14.7171 19.0246 15.8288 18.0996 16.4808C11.7372 20.9109 9.63653 29.2027 13.129 36.1237C14.7714 39.3836 17.3562 41.8578 20.7449 43.4292C24.6349 45.2263 28.8449 45.4854 32.9511 44.1898C36.5213 43.053 39.5469 40.7878 41.613 37.6784C42.1835 36.8342 43.0566 35.0287 43.3765 34.0675C44.1112 31.8022 44.3101 29.2361 43.9124 26.9542C43.7482 26.0431 43.3505 25.6335 42.6071 25.6335C42.0798 25.6335 41.6908 25.8759 41.4746 26.3357C41.319 26.6784 41.319 26.7452 41.4401 27.5226C41.7253 29.3699 41.5438 31.6184 40.9646 33.3235C38.5873 40.3448 30.7294 44.1898 23.4593 41.8828C18.48 40.303 14.8147 36.0317 14.0885 30.958C13.9675 30.1221 13.9675 28.1746 14.0885 27.3303C14.685 23.0758 17.4426 19.3227 21.3413 17.442C23.9434 16.1882 27.0036 15.6031 31.006 15.6031C32.5015 15.6031 33.6167 15.5028 34.8529 15.2604C35.3197 15.1684 35.7173 15.1016 35.726 15.1183C35.7433 15.135 35.8384 15.3858 35.9507 15.6867C36.2533 16.5058 37.0572 18.0522 37.6797 18.9884C37.9822 19.4481 38.4144 20.1251 38.6479 20.4929C39.1838 21.3372 39.3654 21.521 39.7717 21.6214C40.4286 21.7969 41.1202 21.4124 41.3104 20.7771C41.4746 20.2505 41.3796 20.0583 40.0051 17.9853C38.9245 16.3554 38.2934 15.0347 37.9303 13.6555C37.7402 12.9283 37.6019 12.6692 37.2906 12.4769C36.9103 12.2345 36.4781 12.2429 35.6914 12.502Z" fill="black"/>
<path d="M31.5412 19.841C30.9707 20.0249 30.6595 20.0583 29.0343 20.1252C26.4409 20.2255 25.248 20.4345 23.6401 21.0864C19.4907 22.7665 17.1566 27.2134 18.1421 31.5682C18.9806 35.3046 22.0667 38.1382 26 38.7902C28.3687 39.183 30.8324 38.6731 32.9244 37.3608C34.3507 36.4664 35.829 34.7529 36.4773 33.2483C36.996 32.0363 37.1775 31.1587 37.1862 29.8129C37.1862 28.5257 37.0824 27.8821 36.6675 26.5948C36.3736 25.6837 35.7425 24.4216 35.0942 23.4269C34.3853 22.3402 34.0223 21.6298 33.7975 20.9025C33.59 20.2088 33.3566 19.8911 32.959 19.7323C32.57 19.5735 32.302 19.5986 31.5412 19.841ZM31.8784 22.9003C32.0081 23.1928 32.3711 23.8281 32.6823 24.3045C33.5036 25.5751 33.6592 25.8425 33.9963 26.6533C34.8954 28.7681 34.904 30.841 34.005 32.5796C32.6391 35.2294 29.6999 36.7841 26.7694 36.4246C25.0664 36.2157 23.8043 35.6139 22.5854 34.452C21.1418 33.0728 20.4588 31.5014 20.4588 29.5622C20.4588 27.7818 21.0813 26.202 22.2656 24.9565C23.8562 23.3015 26.1038 22.5576 29.5962 22.5325C30.1235 22.5325 30.72 22.4991 30.9361 22.4656C31.6277 22.3402 31.6104 22.3319 31.8784 22.9003Z" fill="black"/>
</svg>
