<svg width="736" height="68" viewBox="0 0 736 68" fill="none" xmlns="http://www.w3.org/2000/svg">
<path d="M27.2767 10.4941C28.2481 21.5895 35.2852 27.2087 46.1337 27.7977C53.6622 28.2067 61.1606 28.0421 68.697 28.0428H109.755L243.413 28.0403C243.416 30.6332 243.468 33.3953 243.398 35.9724L109.328 35.9778L68.7395 35.976C61.1437 35.976 53.6601 35.774 46.0762 36.3361C35.292 37.1357 28.2255 42.4059 27.3363 53.7704C18.8116 50.4071 15.71 47.0735 19.1934 38.0111C10.995 37.7495 6.58468 37.8153 0 32.2184V31.8806C6.4901 26.4288 11.0444 26.3415 19.2401 26.2103C16.3796 18.9862 17.7445 14.1026 25.511 11.099C26.0924 10.8769 26.6813 10.6753 27.2767 10.4941Z" fill="#989898"/>
<path d="M708.723 10.436C717.686 13.5939 719.727 17.506 716.888 26.2007C724.924 26.2446 729.812 26.5008 736 31.9842V32.3744C729.578 37.5401 725.025 37.9681 716.903 37.9469C717.6 40.0751 718.053 42.0592 718.567 44.2342C718.376 44.9457 718.139 45.644 717.859 46.3236C716.087 50.5674 712.626 52.1836 708.68 53.8352C707.908 32.3514 682.525 35.9826 667.392 35.9793L627.623 35.9761L492.635 35.9635L492.66 28.0098L623.778 28.1094L666.734 28.0785C675.176 28.049 683.567 28.2337 691.987 27.4884C701.956 26.6061 708.041 20.4863 708.723 10.436Z" fill="#989898"/>
<path d="M401.695 9.42585C417.795 7.52835 426.147 18.7599 428.034 33.2995C434.06 27.0496 441.438 20.2107 449.668 17.1919C455.195 15.1636 462.756 15.1288 468.111 17.6811C475.827 21.3589 479.457 31.1598 475.55 38.8799C473.847 42.2558 470.85 44.8006 467.245 45.9369C464.047 46.9191 461.61 47.0941 458.235 45.9251C451.727 43.6685 448.363 35.786 454.455 31.0013C457.826 28.3559 463.148 29.512 464.068 34.1897C464.575 36.7509 463.18 38.6624 461.89 40.7073C464.003 40.3975 466.167 40.206 467.795 38.835C475.198 32.5901 469.182 22.6516 460.755 21.8617C447.106 20.5823 440.058 31.5759 432.116 40.5089C429.511 43.4346 426.92 45.6821 423.94 48.027C405.648 61.3653 383.78 57.0387 371.957 37.7177C373.984 37.916 377.099 37.842 379.22 37.8481C383.076 42.7428 387.147 46.4515 393.322 48.4576C402.985 51.7495 416.375 45.718 419.265 35.6228C422.589 22.3497 410.155 10.7703 397.289 16.8674C390.705 19.9882 392.294 30.7077 397.145 31.4257C398.525 30.8791 398.676 30.8115 398.457 29.2619C397.393 23.0066 407.711 22.2455 408.667 27.7231C410.108 35.9786 398.267 39.3453 392.319 35.5136C389.527 33.6916 387.586 30.818 386.943 27.5455C384.901 17.4482 392.538 11.0635 401.695 9.42585Z" fill="#989898"/>
<path d="M327.676 9.43311C332.605 8.93466 337.14 9.40723 341.458 12.0522C345.033 14.2354 347.579 17.7659 348.521 21.8474C350.263 29.1301 346.368 35.0497 339.291 36.9781C335.013 38.1436 327.477 34.9193 326.642 30.2086C326.39 28.7908 326.734 27.3321 327.594 26.1771C329.719 23.3535 334.992 23.0836 336.618 26.6213C336.913 27.2649 337.11 30.0429 337.189 30.877L338.145 31.3535C339.003 31.2842 339.468 31.2928 340.077 30.6186C342.926 27.4655 343.945 22.2438 340.651 19.0173C338.338 16.5351 334.675 15.0965 331.235 15.1461C316.633 15.356 310.142 33.1486 320.964 42.9312C325.625 47.1445 330.678 49.4765 336.941 49.3237C345.483 49.1156 351.24 43.669 356.68 37.819C359.167 37.8877 361.168 37.9621 363.648 37.758C355.735 50.0529 346.441 56.3923 331.319 55.3652C325.29 54.9559 321.293 53.6474 315.967 50.8734C311.147 48.0063 308.661 45.8198 304.603 41.7697C297.107 34.4165 292.724 25.4566 281.944 22.3117C273.094 19.7296 260.229 25.7538 265.526 36.6195C266.871 39.3795 270.484 40.1791 273.46 40.6858C271.64 38.0124 269.992 34.6246 272.528 31.7798C273.626 30.5349 275.183 29.7899 276.842 29.7148C280.555 29.5445 284.774 32.8945 284.573 36.7639C284.251 42.9233 278.181 46.6557 272.36 46.4678C263.883 46.3416 257.854 39.8837 258.466 31.3553C259.268 20.186 268.569 15.2492 278.673 15.7613C289.586 16.3141 300.414 25.6603 307.403 33.3233C308.047 20.5525 315.132 11.9372 327.676 9.43311Z" fill="#989898"/>
<path d="M365.865 0.0310774C371.716 -0.276907 372.798 1.68707 374.71 6.69101C380.959 1.23354 386.982 1.88509 391.697 8.62912C383.396 11.4962 379.992 14.1966 374.49 20.992C372.967 22.8737 370.961 25.0572 368.909 26.3657C363.253 27.0403 358.646 17.4974 353.929 14.2735C349.541 11.2741 348.426 10.3933 343.254 8.71465C343.604 8.18853 343.969 7.67283 344.349 7.16791C348.919 1.11963 355.088 2.4662 360.349 6.70826C361.733 3.10948 362.002 1.32375 365.865 0.0310774Z" fill="#989898"/>
<path d="M366.976 40.9517C372.388 41.609 376.726 50.3493 381.527 53.634C385.732 56.5097 386.763 57.1706 391.755 58.7925C386.867 65.9936 380.912 65.8812 374.666 60.5315C373.265 65.0417 372.503 66.4925 367.845 67.5645C363.195 67.5005 361.517 64.678 360.489 60.5836C360.025 60.9904 359.544 61.376 359.044 61.739C352.69 66.3652 347.583 64.7912 343.271 58.7752C348.622 57.0384 350.935 55.7259 355.226 52.0797C359.136 48.7584 362.491 42.4546 366.976 40.9517Z" fill="#989898"/>
<path d="M362.552 28.5367C365.811 28.5109 383.726 27.6721 385.207 29.9484C390.748 38.458 376.524 36.6798 372.223 36.6453C368.665 36.6719 350.819 37.6577 349.26 34.9412C344.774 27.124 358.581 28.5227 362.552 28.5367Z" fill="#989898"/>
<path d="M300.02 6.13505C304.19 6.11924 306.796 6.75426 308.369 11.2989C309.471 14.4823 307.466 25.8568 304.153 26.7093C299.284 22.6961 296.155 19.194 294.481 13.0394C295.529 9.10924 296.196 7.65413 300.02 6.13505Z" fill="#989898"/>
<path d="M432.357 6.14153C436.518 6.07613 440.608 7.70194 440.454 12.5154C440.285 17.8464 436.648 21.5364 433.115 25.0644L430.477 26.9781C426.6 21.0362 423.02 9.07332 432.357 6.14153Z" fill="#989898"/>
<path d="M247.014 28.0186L253.712 28.0254L253.714 35.8677L247 35.8321L247.014 28.0186Z" fill="#989898"/>
<path d="M482.202 28.0161L488.757 28.0341L488.775 35.8839C486.684 35.8207 484.312 35.8789 482.195 35.885L482.202 28.0161Z" fill="#989898"/>
</svg>
