<svg width="935" height="23" viewBox="0 0 935 23" fill="none" xmlns="http://www.w3.org/2000/svg">
<path d="M345.569 7.89146C354.642 7.81007 363.715 7.80421 372.788 7.87389L372.753 15.6594L199.099 14.6903C140.738 14.6903 82.3788 14.0878 24.0307 12.8833L0 12.6192C0.668285 12.2831 3.57161 12.084 4.48881 11.9927C3.30628 11.8744 0.901977 11.8439 0.134709 11.2455C7.81969 10.1903 28.6958 10.2167 37.5879 10.0914L108.506 9.31962L345.569 7.89146Z" fill="#989898"/>
<path d="M560.301 7.81C583.126 7.42823 607.912 8.02256 630.86 8.09634L783.84 8.97408L873.75 9.78976C892.879 9.98299 915.892 9.93848 934.821 11.2513C933.053 11.4299 930.394 11.6149 928.777 12.1132L929.41 11.9551C930.2 12.6859 931.665 12.5278 932.795 12.5389L933.228 12.6373C808.913 14.5321 684.587 15.5047 560.254 15.5557L560.301 7.81Z" fill="#989898"/>
<path d="M518.4 1.01465C527.314 4.28144 536.24 8.02779 545.178 11.4053C536.633 14.4396 527.572 18.1168 519.091 21.4012L501.789 14.8178L500.794 14.5942C498.878 15.5832 494.995 19.7183 493.273 21.4281C490.069 18.0747 486.415 14.6024 483.094 11.3244C486.467 7.91244 489.864 4.52562 493.291 1.16455C495.862 3.75093 497.924 5.78104 500.718 8.15135C505.333 6.60315 514.306 3.20227 518.4 1.01465Z" fill="#989898"/>
<path d="M413.624 1.01758C419.792 3.55126 426.014 5.94851 432.286 8.20815C434.339 6.45208 437.594 3.07696 439.607 1.10014L449.873 11.3221C446.494 14.5011 443.099 18.0349 439.82 21.3456C437.796 19.6949 434.328 16.2126 432.316 14.3043L414.209 21.3749C406.927 18.9349 395.223 14.2885 388.175 11.1675C394.231 9.1462 407.918 3.68769 413.624 1.01758Z" fill="#989898"/>
<path d="M464.164 0.19505C470.243 -0.943847 476.106 3.01976 477.307 9.08197C478.514 15.1448 474.607 21.0459 468.557 22.3143C464.586 23.1463 460.474 21.7814 457.791 18.7395C455.103 15.6981 454.26 11.4488 455.578 7.61223C456.895 3.77511 460.175 0.942799 464.164 0.19505Z" fill="#989898"/>
</svg>
